<svg width="500" height="421" viewBox="0 0 500 421" fill="none" xmlns="http://www.w3.org/2000/svg">
<path d="M427.559 204.964C427.241 208.087 426.869 211.218 426.448 214.306C424.325 229.473 421.421 244.472 417.752 259.219C414.964 260.441 412.045 261.191 409.08 261.446C399.471 262.328 257.556 265.829 254.228 265.829C250.901 265.829 108.98 262.328 99.3709 261.446C96.7002 261.212 94.0649 260.581 91.5274 259.567C87.814 244.709 84.8797 229.593 82.7411 214.306C82.3207 211.218 81.9483 208.087 81.63 204.964C78.6992 176.075 71.6906 139.289 117.112 113.887L143.483 18.4979C143.893 17.0269 144.636 15.7179 145.632 14.7139C146.628 13.71 147.837 13.0498 149.128 12.8056C163.704 10.0234 212.675 1.42093 254.595 1.79093C296.521 1.42093 345.485 10.0234 360.061 12.8056C361.353 13.0486 362.564 13.7082 363.561 14.7123C364.558 15.7163 365.302 17.026 365.713 18.4979L392.084 113.901C437.505 139.289 430.496 176.075 427.559 204.964Z" fill="#393BE0"/>
<path d="M254.228 267.607C253.153 267.607 109.563 264.164 99.2807 263.217C96.4832 262.971 93.7228 262.309 91.0649 261.246L90.3322 260.947L90.11 260.072C86.3838 245.138 83.4354 229.946 81.2816 214.584C80.8612 211.488 80.4829 208.322 80.1645 205.177C79.9884 203.469 79.8042 201.736 79.612 199.976C76.5791 171.92 72.8075 137.04 115.911 112.606L142.053 17.9284C142.546 16.1431 143.444 14.5534 144.65 13.3344C145.856 12.1153 147.322 11.3142 148.888 11.0194C163.055 8.344 212.549 -0.365238 254.589 0.0118775C296.629 -0.358123 346.11 8.344 360.289 11.0194C361.856 11.3109 363.324 12.1098 364.531 13.3278C365.738 14.5459 366.637 16.1356 367.13 17.9213L393.303 112.606C436.412 137.04 432.628 171.927 429.595 199.983C429.403 201.738 429.219 203.467 429.043 205.17C428.724 208.308 428.346 211.474 427.926 214.576C425.79 229.816 422.876 244.888 419.199 259.709L418.983 260.563L418.286 260.876C415.365 262.154 412.306 262.94 409.2 263.21C398.888 264.164 255.297 267.607 254.228 267.607ZM92.7405 258.165C94.9341 258.963 97.1964 259.467 99.4849 259.667C109.767 260.613 253.159 264.05 254.228 264.05C255.297 264.05 398.678 260.613 408.96 259.667C411.537 259.446 414.08 258.836 416.527 257.852C420.071 243.453 422.889 228.817 424.965 214.021C425.379 210.962 425.751 207.845 426.07 204.771C426.244 203.057 426.43 201.313 426.622 199.556C429.703 171.094 433.193 138.862 391.441 115.516L390.84 115.189L364.283 19.0313C363.961 17.8678 363.375 16.8319 362.589 16.0373C361.803 15.2427 360.847 14.7202 359.827 14.5273C345.713 11.8661 296.424 3.19957 254.607 3.55534C212.753 3.17823 163.47 11.8519 149.362 14.513C148.342 14.7074 147.386 15.2312 146.599 16.027C145.813 16.8228 145.227 17.8598 144.906 19.0242L118.313 115.167L117.712 115.495C75.9666 138.84 79.4499 171.08 82.5248 199.52C82.717 201.285 82.9032 203.035 83.0773 204.75C83.3956 207.845 83.762 210.969 84.1824 214C86.2833 228.912 89.1412 243.661 92.7405 258.165Z" fill="black"/>
<path d="M436.075 219.265V324.061C436.075 325.382 435.632 326.649 434.844 327.583C434.056 328.517 432.986 329.042 431.871 329.042H390.492C389.377 329.042 388.308 328.517 387.519 327.583C386.731 326.649 386.288 325.382 386.288 324.061V302.75C386.288 301.429 385.845 300.162 385.057 299.228C384.268 298.294 383.199 297.77 382.084 297.77H128.319C127.204 297.77 126.134 298.294 125.346 299.228C124.557 300.162 124.115 301.429 124.115 302.75V323.919C124.115 325.274 123.66 326.573 122.852 327.531C122.043 328.489 120.946 329.027 119.802 329.027H78.5492C77.4342 329.027 76.3649 328.503 75.5765 327.569C74.7881 326.635 74.3452 325.368 74.3452 324.047V219.415C74.3452 218.06 74.7995 216.76 75.6082 215.802C76.4169 214.844 77.5137 214.306 78.6573 214.306H82.7232C84.8677 229.594 87.8081 244.709 91.5276 259.567C94.0651 260.581 96.7003 261.212 99.371 261.446C108.98 262.328 250.901 265.829 254.228 265.829C257.555 265.829 399.471 262.328 409.08 261.446C412.045 261.191 414.964 260.441 417.752 259.218C421.421 244.472 424.325 229.473 426.448 214.306H431.853C432.405 214.303 432.953 214.429 433.464 214.677C433.974 214.925 434.439 215.289 434.831 215.75C435.223 216.21 435.535 216.758 435.748 217.361C435.962 217.964 436.073 218.611 436.075 219.265Z" fill="black"/>
<path d="M353.881 178.444C355.318 178.498 356.723 178.96 357.977 179.793C359.232 180.625 360.298 181.802 361.088 183.226L379.621 216.668C380.386 218.046 380.869 219.617 381.031 221.255C381.194 222.892 381.032 224.553 380.558 226.103L376.27 240.128C375.701 242.044 374.676 243.724 373.318 244.964C371.96 246.204 370.328 246.951 368.619 247.115L256 252.594C256.648 252.629 255.345 252.629 256 252.594L140.534 247.136C138.825 246.971 137.192 246.223 135.834 244.984C134.475 243.744 133.448 242.065 132.877 240.149L128.595 226.125C128.12 224.574 127.957 222.915 128.119 221.277C128.28 219.639 128.762 218.068 129.525 216.69L148.065 183.247C148.854 181.823 149.921 180.645 151.175 179.812C152.43 178.98 153.835 178.518 155.272 178.466L247.67 175.015C252.018 174.854 256.364 174.854 260.708 175.015L353.881 178.444Z" fill="white"/>
<path d="M256 255.817C255.813 255.816 255.626 255.799 255.441 255.768L140.444 250.338C138.193 250.151 136.038 249.186 134.245 247.564C132.452 245.941 131.1 243.732 130.354 241.209L126.072 227.185C125.456 225.168 125.244 223.008 125.452 220.877C125.661 218.746 126.284 216.701 127.273 214.904L145.807 181.461C146.837 179.603 148.231 178.067 149.869 176.983C151.507 175.899 153.342 175.3 155.218 175.236L247.61 171.785C251.988 171.621 256.432 171.621 260.823 171.785L353.953 175.236C355.825 175.299 357.655 175.896 359.291 176.976C360.926 178.056 362.317 179.588 363.346 181.44L381.886 214.882C382.874 216.68 383.496 218.725 383.705 220.856C383.913 222.987 383.702 225.146 383.087 227.164L378.835 241.209C378.091 243.732 376.739 245.941 374.947 247.563C373.155 249.185 371.001 250.15 368.751 250.338L256.54 255.768C256.361 255.798 256.181 255.815 256 255.817ZM254.252 178.075C252.09 178.075 249.934 178.075 247.796 178.188L155.392 181.646C154.385 181.678 153.4 181.998 152.52 182.579C151.641 183.16 150.893 183.985 150.341 184.984L131.802 218.426C131.271 219.39 130.937 220.487 130.824 221.63C130.712 222.773 130.824 223.932 131.153 225.015L135.435 239.075C135.823 240.399 136.524 241.563 137.455 242.428C138.386 243.293 139.506 243.824 140.684 243.956L255.994 249.399L368.529 243.956C369.702 243.818 370.818 243.285 371.743 242.42C372.669 241.555 373.367 240.394 373.754 239.075L378.042 225.05C378.37 223.967 378.482 222.808 378.368 221.665C378.255 220.522 377.919 219.425 377.388 218.462L358.854 185.019C358.301 184.022 357.553 183.198 356.674 182.617C355.794 182.036 354.81 181.715 353.803 181.682L260.648 178.188C258.534 178.11 256.39 178.075 254.252 178.075Z" fill="black"/>
<path d="M430.4 269.265C430.245 271.687 429.389 273.972 427.976 275.731C426.563 277.491 424.68 278.618 422.646 278.921C410.821 280.693 384.768 284.279 363.256 284.926C334.819 285.795 275.104 287.509 254.33 287.132H254.967H253.489H254.126C233.352 287.509 173.649 285.795 145.2 284.926C123.682 284.279 97.6348 280.693 85.8096 278.921C83.7789 278.613 81.9001 277.484 80.4908 275.725C79.0814 273.966 78.2278 271.684 78.0742 269.265C77.6958 263.36 78.5907 256.522 84.6084 256.031C86.6928 257.922 89.0404 259.367 91.545 260.3C94.0825 261.314 96.7178 261.945 99.3885 262.179C108.998 263.061 250.919 266.562 254.246 266.562C257.573 266.562 399.488 263.061 409.097 262.179C412.062 261.924 414.982 261.174 417.77 259.951C419.971 259.049 422.036 257.732 423.884 256.052C429.883 256.522 430.772 263.36 430.4 269.265Z" fill="black"/>
<path d="M261.321 287.894C258.66 287.894 256.312 287.894 254.318 287.844H254.228H254.132C234.127 288.207 177.259 286.613 145.182 285.638C124.162 285.005 98.9023 281.596 85.7258 279.625C83.5613 279.288 81.5605 278.079 80.0583 276.202C78.5562 274.325 77.6438 271.894 77.4739 269.315C77.1496 264.206 77.8583 260.421 79.5819 258.052C80.212 257.218 80.9792 256.546 81.8363 256.076C82.6934 255.606 83.6225 255.349 84.5666 255.319C84.7241 255.307 84.8795 255.368 84.9991 255.49C87.0311 257.306 89.31 258.697 91.7375 259.603C94.2284 260.598 96.8152 261.217 99.4368 261.446C109.725 262.392 253.183 265.829 254.246 265.829C255.309 265.829 398.762 262.392 409.05 261.446C411.959 261.197 414.824 260.461 417.56 259.261C419.691 258.378 421.693 257.105 423.493 255.49C423.613 255.368 423.768 255.307 423.926 255.319C424.868 255.349 425.796 255.606 426.651 256.076C427.506 256.546 428.271 257.218 428.899 258.052C430.628 260.407 431.337 264.199 431.019 269.315C430.847 271.903 429.928 274.342 428.416 276.221C426.904 278.101 424.892 279.305 422.719 279.633C409.548 281.604 384.282 285.012 363.262 285.645C334.362 286.52 285.386 287.894 261.321 287.894ZM255.135 286.435C275.795 286.741 331.564 285.175 363.238 284.215C384.228 283.582 409.422 280.18 422.568 278.21C424.459 277.916 426.207 276.861 427.519 275.223C428.831 273.584 429.628 271.461 429.775 269.209C430.07 264.555 429.439 261.019 427.974 258.984C426.966 257.656 425.556 256.856 424.052 256.757C422.195 258.388 420.142 259.681 417.962 260.592C415.122 261.839 412.148 262.603 409.128 262.862C398.828 263.808 255.297 267.252 254.228 267.252C253.159 267.252 109.623 263.808 99.3227 262.862C96.6028 262.624 93.9191 261.981 91.3351 260.948C88.8459 260.007 86.5029 258.591 84.3985 256.757C82.8924 256.859 81.4821 257.665 80.4768 258.998C78.9873 261.04 78.3567 264.576 78.675 269.223C78.8254 271.472 79.6233 273.592 80.9352 275.228C82.2471 276.864 83.9934 277.917 85.8819 278.21C99.0344 280.18 124.228 283.582 145.212 284.215C176.893 285.183 232.662 286.741 253.315 286.435C253.371 286.424 253.428 286.424 253.483 286.435H254.961C255.019 286.424 255.077 286.424 255.135 286.435Z" fill="white"/>
<path d="M254.228 90.2422C288.966 90.6763 366.577 97.6849 366.577 97.6849C366.577 97.6849 380.991 98.9941 378.409 86.7343C375.826 74.4745 364.734 30.2524 364.734 30.2524C364.734 30.2524 363.623 18.8677 340.711 15.801C317.799 12.7343 274.552 8.35831 254.595 8.79235C234.638 8.35831 191.397 12.7343 168.485 15.801C145.573 18.8677 144.462 30.2524 144.462 30.2524C144.462 30.2524 133.375 74.4745 130.787 86.7343C128.198 98.9941 142.612 97.6849 142.612 97.6849C142.612 97.6849 220.224 90.6763 254.967 90.2422H254.228Z" fill="black"/>
<path d="M141.422 99.1506C138.954 99.1506 133.567 98.6881 130.864 94.8814C129.309 92.697 128.888 89.8295 129.621 86.3429C132.125 74.4531 142.719 32.1379 143.284 29.8823C143.506 28.3881 145.896 17.3379 168.346 14.3352C191.42 11.304 234.823 6.93516 254.642 7.3692C274.413 6.92805 317.798 11.304 340.866 14.385C363.322 17.3877 365.706 28.4379 365.928 29.9321C366.493 32.1877 377.087 74.5029 379.597 86.3927C380.324 89.8508 379.909 92.7183 378.348 94.9312C374.859 99.8337 366.853 99.1577 366.511 99.1293C365.742 99.0581 289.115 92.1775 254.618 91.6937C220.127 92.1775 143.512 99.0581 142.725 99.1293C142.623 99.1079 142.155 99.1506 141.422 99.1506ZM251.711 10.2082C230.871 10.2082 190.555 14.2996 168.616 17.2382C147.17 20.0844 145.662 30.3519 145.65 30.4586L145.608 30.6792C145.5 31.1204 134.504 75.0152 131.951 87.1043C131.411 89.6658 131.657 91.6225 132.702 93.0883C134.948 96.2404 140.551 96.461 142.521 96.2831C143.29 96.212 219.497 89.367 254.228 88.8475H254.966C289.697 89.367 365.898 96.212 366.673 96.2831C366.739 96.2831 373.796 96.8737 376.492 93.0812C377.537 91.6154 377.777 89.6587 377.243 87.1043C374.69 75.0081 363.688 31.1204 363.58 30.6792L363.538 30.4373C363.538 30.3519 362.018 20.1058 340.572 17.2382C317.564 14.1359 274.335 9.78843 254.642 10.2154C253.699 10.194 252.726 10.1869 251.711 10.1869V10.2082Z" fill="black"/>
<path d="M378.715 110.528C358.067 107.561 337.395 104.9 316.706 102.701C306.358 101.662 296.01 100.673 285.644 99.9689C275.278 99.2645 264.93 98.8233 254.552 98.8091C244.175 98.7948 233.833 99.1791 223.479 99.8693C213.125 100.559 202.765 101.52 192.417 102.573C182.069 103.626 171.734 104.9 161.404 106.266C156.239 106.921 151.074 107.639 145.915 108.365L138.174 109.475L134.3 110.044L132.366 110.343L131.399 110.493L130.919 110.578L130.679 110.614H130.558H130.673L130.913 110.557L131.393 110.443L132.348 110.222L134.264 109.795L138.132 108.934L145.825 107.369C150.96 106.359 156.101 105.426 161.248 104.523C171.547 102.751 181.865 101.15 192.213 99.8052C212.909 97.1156 233.707 95.1945 254.601 95.2514C265.026 95.3297 275.458 95.8064 285.83 96.6104C296.202 97.4145 306.598 98.5743 316.946 99.9404C337.63 102.673 358.247 106.109 378.715 110.528Z" fill="black"/>
<path d="M115.094 197.663C129.171 197.663 140.582 184.143 140.582 167.465C140.582 150.788 129.171 137.268 115.094 137.268C101.017 137.268 89.6055 150.788 89.6055 167.465C89.6055 184.143 101.017 197.663 115.094 197.663Z" fill="white"/>
<path d="M115.094 199.798C109.696 199.798 104.42 197.902 99.9322 194.349C95.4444 190.796 91.9466 185.746 89.8811 179.839C87.8155 173.931 87.2751 167.43 88.3281 161.158C89.3811 154.886 91.9802 149.125 95.7968 144.603C99.6133 140.081 104.476 137.002 109.77 135.754C115.063 134.507 120.551 135.147 125.537 137.594C130.524 140.041 134.786 144.186 137.785 149.503C140.783 154.82 142.384 161.071 142.384 167.465C142.376 176.038 139.498 184.256 134.382 190.318C129.266 196.379 122.329 199.788 115.094 199.798ZM115.094 139.409C110.409 139.409 105.829 141.056 101.934 144.139C98.0382 147.223 95.0022 151.607 93.2096 156.735C91.417 161.863 90.9483 167.506 91.8627 172.95C92.7772 178.394 95.0337 183.394 98.3469 187.319C101.66 191.243 105.881 193.915 110.476 194.997C115.072 196.079 119.834 195.523 124.162 193.397C128.49 191.272 132.189 187.674 134.791 183.058C137.393 178.443 138.781 173.016 138.78 167.465C138.771 160.027 136.272 152.896 131.832 147.637C127.392 142.378 121.372 139.419 115.094 139.409Z" fill="black"/>
<path d="M115.094 192.86C126.931 192.86 136.528 181.491 136.528 167.465C136.528 153.44 126.931 142.071 115.094 142.071C103.256 142.071 93.6592 153.44 93.6592 167.465C93.6592 181.491 103.256 192.86 115.094 192.86Z" fill="white"/>
<path d="M115.093 193.935C110.674 193.936 106.354 192.385 102.679 189.477C99.0046 186.57 96.1401 182.436 94.4482 177.6C92.7563 172.763 92.313 167.441 93.1744 162.306C94.0358 157.171 96.1631 152.454 99.2873 148.751C102.412 145.049 106.392 142.527 110.726 141.505C115.06 140.483 119.553 141.007 123.635 143.01C127.718 145.014 131.208 148.406 133.663 152.759C136.118 157.112 137.428 162.23 137.428 167.465C137.422 174.482 135.067 181.209 130.88 186.171C126.693 191.133 121.015 193.925 115.093 193.935ZM115.093 143.138C111.03 143.137 107.058 144.563 103.68 147.236C100.301 149.91 97.6675 153.71 96.1122 158.157C94.5569 162.604 94.1496 167.497 94.9419 172.218C95.7343 176.939 97.6906 181.276 100.563 184.68C103.436 188.083 107.097 190.401 111.082 191.34C115.066 192.279 119.197 191.796 122.95 189.954C126.703 188.111 129.911 184.991 132.168 180.988C134.424 176.985 135.628 172.279 135.627 167.465C135.62 161.016 133.455 154.832 129.605 150.272C125.756 145.711 120.537 143.146 115.093 143.138Z" fill="black"/>
<path d="M113.893 241.85C118.967 241.85 123.081 236.976 123.081 230.963C123.081 224.951 118.967 220.077 113.893 220.077C108.818 220.077 104.704 224.951 104.704 230.963C104.704 236.976 108.818 241.85 113.893 241.85Z" fill="white"/>
<path d="M113.892 243.273C111.837 243.266 109.83 242.537 108.124 241.179C106.418 239.821 105.091 237.895 104.309 235.643C103.526 233.392 103.325 230.916 103.73 228.529C104.135 226.142 105.128 223.95 106.584 222.232C108.04 220.513 109.893 219.344 111.909 218.873C113.925 218.401 116.014 218.648 117.912 219.582C119.809 220.517 121.431 222.096 122.571 224.122C123.711 226.148 124.319 228.528 124.318 230.963C124.317 232.583 124.046 234.186 123.521 235.682C122.996 237.177 122.227 238.535 121.259 239.678C120.29 240.822 119.141 241.727 117.877 242.344C116.613 242.961 115.259 243.277 113.892 243.273ZM113.892 221.493C112.313 221.5 110.77 222.061 109.459 223.106C108.149 224.151 107.129 225.632 106.529 227.364C105.928 229.095 105.774 230.998 106.086 232.833C106.398 234.667 107.161 236.351 108.281 237.672C109.4 238.993 110.824 239.892 112.374 240.254C113.924 240.617 115.529 240.427 116.988 239.709C118.447 238.992 119.694 237.778 120.571 236.221C121.448 234.664 121.916 232.835 121.916 230.963C121.915 229.717 121.707 228.483 121.303 227.332C120.899 226.181 120.308 225.136 119.562 224.256C118.817 223.376 117.932 222.679 116.96 222.205C115.987 221.731 114.944 221.489 113.892 221.493Z" fill="black"/>
<path d="M113.892 239.011C117.644 239.011 120.685 235.408 120.685 230.963C120.685 226.519 117.644 222.916 113.892 222.916C110.141 222.916 107.1 226.519 107.1 230.963C107.1 235.408 110.141 239.011 113.892 239.011Z" fill="white"/>
<path d="M113.893 239.359C112.489 239.359 111.118 238.866 109.951 237.943C108.785 237.019 107.876 235.706 107.339 234.17C106.802 232.634 106.662 230.944 106.937 229.314C107.211 227.684 107.887 226.186 108.879 225.012C109.872 223.837 111.136 223.037 112.513 222.713C113.889 222.39 115.315 222.557 116.611 223.194C117.907 223.832 119.014 224.91 119.793 226.293C120.572 227.675 120.986 229.301 120.985 230.963C120.982 233.19 120.234 235.325 118.904 236.898C117.574 238.472 115.772 239.357 113.893 239.359ZM113.893 223.271C112.609 223.271 111.353 223.723 110.286 224.568C109.218 225.413 108.386 226.614 107.895 228.02C107.403 229.425 107.275 230.972 107.525 232.464C107.776 233.956 108.394 235.326 109.302 236.402C110.21 237.478 111.367 238.21 112.626 238.507C113.885 238.804 115.191 238.652 116.377 238.069C117.563 237.487 118.577 236.501 119.291 235.236C120.004 233.972 120.385 232.484 120.385 230.963C120.383 228.924 119.699 226.968 118.481 225.526C117.264 224.084 115.614 223.273 113.893 223.271Z" fill="black"/>
<path d="M395.699 241.85C400.774 241.85 404.888 236.976 404.888 230.963C404.888 224.951 400.774 220.077 395.699 220.077C390.624 220.077 386.51 224.951 386.51 230.963C386.51 236.976 390.624 241.85 395.699 241.85Z" fill="white"/>
<path d="M395.698 243.273C393.642 243.273 391.632 242.55 389.922 241.197C388.212 239.843 386.88 237.919 386.093 235.668C385.307 233.417 385.101 230.94 385.503 228.551C385.904 226.161 386.895 223.967 388.35 222.244C389.804 220.522 391.657 219.35 393.674 218.875C395.691 218.401 397.781 218.646 399.681 219.579C401.58 220.512 403.204 222.092 404.345 224.118C405.487 226.145 406.096 228.527 406.094 230.963C406.091 234.228 404.995 237.358 403.046 239.666C401.097 241.974 398.454 243.271 395.698 243.273ZM395.698 221.493C394.118 221.493 392.572 222.048 391.257 223.089C389.943 224.129 388.918 225.608 388.313 227.339C387.708 229.069 387.55 230.974 387.858 232.811C388.167 234.648 388.928 236.335 390.046 237.66C391.164 238.984 392.588 239.886 394.139 240.252C395.69 240.617 397.297 240.43 398.758 239.713C400.218 238.996 401.467 237.782 402.345 236.225C403.223 234.667 403.692 232.836 403.692 230.963C403.691 228.452 402.848 226.044 401.349 224.269C399.85 222.493 397.818 221.495 395.698 221.493Z" fill="black"/>
<path d="M395.698 239.011C399.45 239.011 402.491 235.408 402.491 230.963C402.491 226.519 399.45 222.916 395.698 222.916C391.947 222.916 388.906 226.519 388.906 230.963C388.906 235.408 391.947 239.011 395.698 239.011Z" fill="white"/>
<path d="M395.699 239.359C394.296 239.359 392.924 238.866 391.758 237.943C390.591 237.019 389.682 235.706 389.145 234.17C388.609 232.634 388.469 230.944 388.743 229.314C389.017 227.684 389.693 226.186 390.685 225.012C391.678 223.837 392.942 223.037 394.319 222.713C395.695 222.39 397.121 222.557 398.417 223.194C399.713 223.832 400.82 224.91 401.599 226.293C402.378 227.675 402.793 229.301 402.791 230.963C402.79 233.191 402.042 235.326 400.712 236.901C399.382 238.475 397.579 239.359 395.699 239.359ZM395.699 223.271C394.415 223.271 393.159 223.723 392.092 224.568C391.024 225.413 390.192 226.614 389.701 228.02C389.209 229.425 389.081 230.972 389.331 232.464C389.582 233.956 390.2 235.326 391.108 236.402C392.016 237.478 393.173 238.21 394.432 238.507C395.691 238.804 396.997 238.652 398.183 238.069C399.369 237.487 400.383 236.501 401.097 235.236C401.81 233.972 402.191 232.484 402.191 230.963C402.189 228.924 401.505 226.968 400.288 225.526C399.07 224.084 397.42 223.273 395.699 223.271Z" fill="black"/>
<path d="M395.698 197.663C409.775 197.663 421.186 184.143 421.186 167.465C421.186 150.788 409.775 137.268 395.698 137.268C381.621 137.268 370.21 150.788 370.21 167.465C370.21 184.143 381.621 197.663 395.698 197.663Z" fill="white"/>
<path d="M395.699 199.798C390.301 199.798 385.025 197.902 380.537 194.349C376.05 190.796 372.552 185.746 370.486 179.839C368.421 173.931 367.88 167.43 368.933 161.158C369.986 154.886 372.585 149.125 376.402 144.603C380.219 140.081 385.081 137.002 390.375 135.754C395.669 134.507 401.156 135.147 406.142 137.594C411.129 140.041 415.391 144.186 418.39 149.503C421.388 154.82 422.989 161.071 422.989 167.465C422.983 176.038 420.105 184.258 414.989 190.32C409.872 196.381 402.935 199.79 395.699 199.798ZM395.699 139.409C391.014 139.409 386.434 141.056 382.539 144.139C378.643 147.223 375.607 151.607 373.815 156.735C372.022 161.863 371.554 167.506 372.468 172.95C373.382 178.394 375.639 183.394 378.952 187.319C382.265 191.243 386.486 193.915 391.082 194.997C395.677 196.079 400.44 195.523 404.768 193.397C409.096 191.272 412.795 187.674 415.397 183.058C417.999 178.443 419.387 173.016 419.386 167.465C419.378 160.026 416.879 152.894 412.439 147.635C407.998 142.375 401.978 139.417 395.699 139.409Z" fill="black"/>
<path d="M156.365 241.138H155.932C152.071 241.138 148.942 244.846 148.942 249.421V296.567C148.942 301.141 152.071 304.849 155.932 304.849H156.365C160.226 304.849 163.355 301.141 163.355 296.567V249.421C163.355 244.846 160.226 241.138 156.365 241.138Z" fill="black"/>
<path d="M156.365 305.561H155.933C153.92 305.559 151.99 304.611 150.567 302.925C149.144 301.238 148.343 298.952 148.342 296.567V249.421C148.343 247.036 149.144 244.749 150.567 243.063C151.99 241.377 153.92 240.429 155.933 240.427H156.365C158.378 240.429 160.308 241.377 161.731 243.063C163.155 244.749 163.955 247.036 163.957 249.421V296.567C163.955 298.952 163.155 301.238 161.731 302.925C160.308 304.611 158.378 305.559 156.365 305.561ZM155.933 241.85C154.239 241.852 152.614 242.65 151.416 244.069C150.218 245.489 149.545 247.413 149.543 249.421V296.567C149.545 298.574 150.218 300.499 151.416 301.918C152.614 303.338 154.239 304.136 155.933 304.138H156.365C158.06 304.136 159.684 303.338 160.882 301.918C162.08 300.499 162.754 298.574 162.756 296.567V249.421C162.754 247.413 162.08 245.489 160.882 244.069C159.684 242.65 158.06 241.852 156.365 241.85H155.933Z" fill="white"/>
<path d="M355.569 241.138H355.136C351.276 241.138 348.146 244.846 348.146 249.421V296.567C348.146 301.141 351.276 304.849 355.136 304.849H355.569C359.43 304.849 362.559 301.141 362.559 296.567V249.421C362.559 244.846 359.43 241.138 355.569 241.138Z" fill="black"/>
<path d="M355.569 305.561H355.136C353.124 305.559 351.194 304.611 349.77 302.925C348.347 301.238 347.547 298.952 347.545 296.567V249.421C347.547 247.036 348.347 244.749 349.77 243.063C351.194 241.377 353.124 240.429 355.136 240.427H355.569C357.582 240.429 359.512 241.377 360.935 243.063C362.358 244.749 363.158 247.036 363.16 249.421V296.567C363.158 298.952 362.358 301.238 360.935 302.925C359.512 304.611 357.582 305.559 355.569 305.561ZM355.136 241.85C353.442 241.852 351.818 242.65 350.62 244.069C349.422 245.489 348.748 247.413 348.746 249.421V296.567C348.748 298.574 349.422 300.499 350.62 301.918C351.818 303.338 353.442 304.136 355.136 304.138H355.569C357.263 304.136 358.887 303.338 360.086 301.918C361.284 300.499 361.957 298.574 361.959 296.567V249.421C361.957 247.413 361.284 245.489 360.086 244.069C358.887 242.65 357.263 241.852 355.569 241.85H355.136Z" fill="white"/>
<path d="M147.296 112.129C148.335 116.462 149.163 120.824 149.914 125.2C150.665 129.576 151.343 133.966 151.944 138.371C152.545 142.775 153.079 147.187 153.553 151.612C154.028 156.038 154.43 160.478 154.683 164.968C153.478 160.712 152.475 156.379 151.68 151.99C150.879 147.625 150.17 143.238 149.554 138.826C148.937 134.415 148.435 129.986 148.046 125.542C147.668 121.095 147.356 116.633 147.296 112.129Z" fill="black"/>
<path d="M362.745 112.129C362.685 116.633 362.372 121.095 361.97 125.542C361.568 129.989 361.069 134.415 360.463 138.826C359.856 143.238 359.153 147.628 358.33 151.99C357.538 156.38 356.535 160.713 355.328 164.968C355.586 160.478 355.988 156.038 356.463 151.612C356.937 147.187 357.46 142.768 358.066 138.371C358.673 133.973 359.351 129.576 360.096 125.2C360.841 120.824 361.7 116.462 362.745 112.129Z" fill="black"/>
<path d="M255.567 156.031C261.69 156.031 266.653 153.482 266.653 150.339C266.653 147.195 261.69 144.646 255.567 144.646C249.444 144.646 244.48 147.195 244.48 150.339C244.48 153.482 249.444 156.031 255.567 156.031Z" fill="white"/>
<path d="M255.567 157.454C248.558 157.454 243.279 154.395 243.279 150.339C243.279 146.283 248.558 143.223 255.567 143.223C262.576 143.223 267.855 146.283 267.855 150.339C267.855 154.395 262.57 157.454 255.567 157.454ZM255.567 146.07C249.531 146.07 245.682 148.595 245.682 150.339C245.682 152.082 249.531 154.608 255.567 154.608C261.603 154.608 265.452 152.075 265.452 150.339C265.452 148.603 261.603 146.07 255.567 146.07Z" fill="black"/>
<path d="M148.863 192.028C166.334 190.149 183.823 188.826 201.329 187.759C210.08 187.182 218.836 186.798 227.592 186.371C236.349 185.944 245.117 185.745 253.915 185.66C271.518 185.759 289.001 186.663 306.513 187.723C324.026 188.783 341.509 190.149 358.973 192.056C341.437 192.227 323.912 191.964 306.399 191.608C297.643 191.473 288.893 191.188 280.136 191.039C271.38 190.889 262.636 190.569 253.927 190.64C245.219 190.711 236.451 190.896 227.7 191.089C218.95 191.281 210.2 191.523 201.437 191.644C183.925 191.964 166.406 192.206 148.863 192.028Z" fill="black"/>
<path d="M145.055 200.652C163.162 198.795 181.288 197.5 199.425 196.432C208.494 195.863 217.568 195.486 226.643 195.066C235.717 194.646 244.798 194.44 253.915 194.355C272.148 194.44 290.267 195.344 308.417 196.39C326.566 197.436 344.679 198.787 362.786 200.659C344.613 200.851 326.458 200.609 308.309 200.26C299.234 200.139 290.159 199.862 281.091 199.712C272.022 199.563 262.953 199.243 253.927 199.314C244.9 199.385 235.814 199.584 226.745 199.776C217.676 199.969 208.608 200.203 199.533 200.31C181.372 200.652 163.228 200.872 145.055 200.652Z" fill="black"/>
<path d="M140.18 209.418C159.11 207.717 178.058 206.572 197.012 205.611C206.489 205.106 215.972 204.786 225.455 204.416C234.938 204.046 244.421 203.875 253.935 203.783C272.991 203.932 291.915 204.971 310.875 206.138C329.835 207.305 348.753 208.799 367.659 210.82C348.675 210.869 329.709 210.499 310.749 210.023C301.272 209.838 291.795 209.496 282.318 209.311C272.841 209.126 263.37 208.735 253.941 208.778C244.512 208.82 235.011 208.991 225.533 209.133C216.056 209.276 206.579 209.453 197.096 209.503C178.13 209.688 159.152 209.774 140.18 209.418Z" fill="black"/>
<path d="M137.254 217.807C156.671 216.106 176.105 214.961 195.51 214.014C205.233 213.502 214.956 213.182 224.68 212.812C234.403 212.442 244.126 212.271 253.885 212.171C258.768 212.171 263.645 212.271 268.509 212.371C273.374 212.47 278.239 212.591 283.103 212.762L297.685 213.317L304.982 213.616L312.267 213.972C331.708 214.918 351.142 216.106 370.522 217.807C351.058 218.163 331.605 218.07 312.159 217.857C302.43 217.8 292.712 217.579 282.989 217.48C273.266 217.38 263.549 217.095 253.861 217.145C244.174 217.195 234.445 217.366 224.728 217.515C215.01 217.665 205.287 217.835 195.564 217.885C176.171 218.091 156.749 218.17 137.254 217.807Z" fill="black"/>
<path d="M134.576 224.218C154.455 222.93 174.346 222.133 194.243 221.507C204.188 221.144 214.14 220.966 224.085 220.703L253.934 220.176C273.885 220.255 293.752 221.044 313.643 221.962C333.534 222.88 353.407 224.097 373.267 225.79C353.352 226.153 333.456 226.068 313.565 225.854C303.619 225.797 293.674 225.57 283.728 225.47C273.783 225.371 263.843 225.072 253.934 225.157L224.097 225.406C214.158 225.406 204.212 225.477 194.267 225.406C174.376 225.271 154.479 224.986 134.576 224.218Z" fill="black"/>
<path d="M137.254 231.668C156.695 230.558 176.135 229.932 195.582 229.49C205.305 229.22 215.028 229.127 224.752 228.95L253.921 228.693L283.091 228.942C292.808 229.12 302.532 229.206 312.255 229.483C331.701 229.932 351.148 230.565 370.582 231.682C351.136 232.635 331.689 233.105 312.249 233.368C302.526 233.56 292.802 233.56 283.085 233.653H253.921H224.758C215.034 233.56 205.311 233.546 195.588 233.361C176.147 233.077 156.701 232.614 137.254 231.668Z" fill="black"/>
<path d="M140.18 238.783C159.152 238.249 178.118 238.171 197.078 238.235C206.555 238.235 216.032 238.363 225.509 238.406C234.986 238.449 244.464 238.655 253.917 238.648L282.348 238.434C291.819 238.434 301.296 238.385 310.779 238.491C329.733 238.619 348.693 238.918 367.659 239.715C348.717 240.996 329.757 241.771 310.797 242.376C301.32 242.732 291.837 242.896 282.36 243.152C272.883 243.408 263.4 243.508 253.911 243.621C244.409 243.536 234.922 243.365 225.449 243.109C215.966 242.796 206.489 242.547 197.012 242.106C178.064 241.316 159.116 240.313 140.18 238.783Z" fill="black"/>
<path d="M250 338C388.071 338 500 334.862 500 330.991C500 327.121 388.071 323.983 250 323.983C111.929 323.983 0 327.121 0 330.991C0 334.862 111.929 338 250 338Z" fill="black"/>
<path d="M255.333 87.4529C277.188 87.7304 326.008 92.1348 326.008 92.1348C326.008 92.1348 335.071 92.9673 333.443 85.2542C331.816 77.5411 324.843 49.72 324.843 49.72C324.843 49.72 324.146 42.5619 309.733 40.6336C295.319 38.7053 268.119 35.9517 255.567 36.2292C243.015 35.9517 215.815 38.7053 201.401 40.6336C186.988 42.5619 186.291 49.72 186.291 49.72C186.291 49.72 179.312 77.5411 177.685 85.2542C176.057 92.9673 185.126 92.1348 185.126 92.1348C185.126 92.1348 233.946 87.7304 255.801 87.4529H255.333Z" fill="white"/>
<path d="M184.309 93.5935C182.646 93.5935 179.205 93.2662 177.397 90.7474C176.658 89.7086 175.901 87.8585 176.52 84.927C178.094 77.4701 184.718 51.0222 185.12 49.4141C185.318 48.1974 187.096 41.1389 201.264 39.2391C215.791 37.2966 243.099 34.55 255.591 34.8275C268.029 34.55 295.343 37.2966 309.865 39.2391C324.038 41.1389 325.81 48.1974 326.014 49.4141C326.417 51.0222 333.035 77.4701 334.609 84.927C335.209 87.8585 334.476 89.7086 333.738 90.7474C331.431 93.9778 326.471 93.5935 325.93 93.5935C325.39 93.5935 277.284 89.2176 255.585 88.9187C233.899 89.2176 185.721 93.5509 185.234 93.5935C185.096 93.5651 184.772 93.5935 184.309 93.5935ZM255.778 86.037C277.632 86.3643 325.588 90.6762 326.074 90.7189C327.276 90.8186 330.591 90.7189 331.876 88.8903C332.434 88.1076 332.561 87.0332 332.254 85.5959C330.657 78.0037 323.738 50.4031 323.666 50.1256L323.624 49.8837C323.624 49.8837 322.621 43.7929 309.577 42.0568C295.115 40.1214 267.951 37.3891 255.567 37.6595C243.141 37.382 215.972 40.1214 201.516 42.0568C188.471 43.8001 187.468 49.8837 187.462 49.9264L187.42 50.1327C187.354 50.4102 180.436 78.0108 178.832 85.603C178.532 87.026 178.658 88.1147 179.211 88.8974C180.496 90.7047 183.841 90.8328 185.018 90.7261C185.505 90.6834 233.46 86.3714 255.285 86.0441H255.753L255.778 86.037Z" fill="black"/>
<path d="M395.771 192.86C407.608 192.86 417.205 181.491 417.205 167.465C417.205 153.44 407.608 142.071 395.771 142.071C383.933 142.071 374.336 153.44 374.336 167.465C374.336 181.491 383.933 192.86 395.771 192.86Z" fill="white"/>
<path d="M395.777 193.935C391.359 193.936 387.038 192.385 383.364 189.477C379.689 186.57 376.824 182.436 375.133 177.6C373.441 172.763 372.997 167.441 373.859 162.306C374.72 157.171 376.847 152.454 379.972 148.751C383.096 145.049 387.077 142.527 391.411 141.505C395.745 140.483 400.237 141.007 404.32 143.01C408.402 145.014 411.892 148.406 414.347 152.759C416.802 157.112 418.113 162.23 418.113 167.465C418.106 174.482 415.751 181.209 411.564 186.171C407.377 191.133 401.7 193.925 395.777 193.935ZM395.777 143.138C391.715 143.137 387.743 144.563 384.364 147.236C380.985 149.91 378.352 153.71 376.797 158.157C375.241 162.604 374.834 167.497 375.626 172.218C376.419 176.939 378.375 181.276 381.248 184.68C384.121 188.083 387.781 190.401 391.766 191.34C395.751 192.279 399.881 191.796 403.634 189.954C407.388 188.111 410.595 184.991 412.852 180.988C415.108 176.985 416.312 172.279 416.311 167.465C416.305 161.016 414.139 154.832 410.29 150.272C406.44 145.711 401.221 143.146 395.777 143.138Z" fill="black"/>
</svg>
